<svg xmlns="http://www.w3.org/2000/svg" width="79.994" height="57.391"><path data-name="Path 256" d="M9.68 56.141a1.323 1.323 0 0 1-1.3-1.1L1.275 14.747a1.328 1.328 0 0 1 1.077-1.537L70.085 1.267a1.307 1.307 0 0 1 .234-.021 1.324 1.324 0 0 1 1.3 1.1l1.756 9.962a1.329 1.329 0 0 1-1.077 1.538 9.015 9.015 0 0 0 3.131 17.755 1.3 1.3 0 0 1 .233-.021 1.326 1.326 0 0 1 1.305 1.1l1.756 9.963a1.329 1.329 0 0 1-1.076 1.537L9.913 56.123a1.3 1.3 0 0 1-.233.018z" fill="#fff"/><path data-name="Path 257" d="M75.739 32.894a.081.081 0 0 0-.073-.064h-.017a10.263 10.263 0 0 1-11.89-8.326 10.272 10.272 0 0 1 8.326-11.891.076.076 0 0 0 .062-.089l-1.756-9.963a.081.081 0 0 0-.073-.064h-.017L36.552 8.448l7.132 40.445 11.713-2.065 22.036-3.886a.07.07 0 0 0 .049-.032.066.066 0 0 0 .013-.057z" fill="#00ff79"/><path data-name="Union 10" d="M7.145 55.261L.04 14.967a2.579 2.579 0 0 1 2.092-2.986l32-5.641 1.155-.2 1.033-.182.11-.019 1.392-.245.078-.014 1.494-.263 1-.177.8-.141 1.071-.189 1.076-.19 2.947-.519 1.735-.306 4.6-.812.4-.07 3.856-.68.713-.126.368-.065.978-.172 1.111-.2.087-.016 1.08-.19.058-.009 3.376-.6.211-.037c.979-.171 1.836-.323 2.554-.449l1.166-.206.189-.033.166-.029.5-.088.419-.074a2.578 2.578 0 0 1 2.987 2.09l1.756 9.963a2.627 2.627 0 0 1-.534 2.064 2.377 2.377 0 0 1-.215.236 2.558 2.558 0 0 1-1.341.685 7.764 7.764 0 0 0 1.344 15.41 7.693 7.693 0 0 0 1.353-.118 2.676 2.676 0 0 1 .45-.04 2.578 2.578 0 0 1 2.535 2.13l1.756 9.964a2.574 2.574 0 0 1-2.089 2.985l-14.774 2.6-.071.012-3.331.588-.819.144-2.024.357-.837.148-3.09.545-.468.082-1.34.235-.833.147c-1.64.29-3.3.583-4.968.876l-.867.153-2.452.432h-.006l-.331.057-31.522 5.559a2.7 2.7 0 0 1-.451.039 2.577 2.577 0 0 1-2.528-2.121zm-4.58-40.817a.078.078 0 0 0-.063.089l7.105 40.293a.081.081 0 0 0 .073.064h.016l31.523-5.558-7.131-40.444zm53.231 22.888l-13.728 2.42 1.613 9.144 10.184-1.8 5-.881 18.568-3.274a.075.075 0 0 0 .062-.089l-1.756-9.963a.082.082 0 0 0-.073-.064h-.017a10.354 10.354 0 0 1-1.786.155 10.24 10.24 0 0 1-8.313-4.244 10.233 10.233 0 0 1-.548-.839 10.255 10.255 0 0 1-1.243-3.4 8.496 8.496 0 0 1-.078-.517c0-.027-.006-.053-.008-.079-.017-.147-.034-.294-.042-.441v-.047a10.272 10.272 0 0 1 7.382-10.556l.058-.018c.137-.038.277-.073.417-.107l.088-.021c.17-.039.34-.074.514-.1a.077.077 0 0 0 .062-.09l-1.756-9.963a.079.079 0 0 0-.059-.061h-.032l-.387.069-.072.012-1.419.25-.084.015-1.247.221-.65.114-.689.122-.934.164-.237.042-.648.114-.522.094-.31.054-.584.1-1.353.24h-.024l-.854.151-.376.067-.905.159-.376.068-.641.113-2.058.363-1.259.222-.386.069-.891.156-.929.164-3.623.639-4 .705-.72.127-1.653.291-1.712.3-1.46.257-.5.088-2.246.4 1.613 9.143 13.727-2.419.435 2.462-13.728 2.419.724 4.1 13.728-2.42.434 2.462-13.736 2.432.724 4.1 13.727-2.42.435 2.461-13.728 2.421.724 4.1 13.728-2.42zm-34.337-3.339l-5.772 1.018-1.58 2.41-1.157.2.491-4.228-2.016-3.928 1.157-.2 2.352 1.814 5.838-1.029-5.118-7.118 2.707-.475 7.6 6.677 2.607-.458c1.111-.2 3.641.241 3.837 1.352s-2.032 2.391-3.142 2.586l-2.639.465-4.823 8.871-2.708.478z" fill="#40078e"/></svg>