<svg xmlns="http://www.w3.org/2000/svg" width="64" height="64" viewBox="0 0 64 64">
  <g id="arrow" transform="translate(-651 -584)">
    <circle id="Ellipse_38" data-name="Ellipse 38" cx="32" cy="32" r="32" transform="translate(651 584)" fill="#40078e"/>
    <path id="Path_217" data-name="Path 217" d="M-195.9-72.054a3.123,3.123,0,0,0-2.224-.919,3.125,3.125,0,0,0-2.225.919l-6.632,6.632-6.632-6.632a3.123,3.123,0,0,0-2.224-.919,3.125,3.125,0,0,0-2.225.919,3.126,3.126,0,0,0-.919,2.224,3.128,3.128,0,0,0,.919,2.225l8.451,8.45a3.154,3.154,0,0,0,.365.447,3.123,3.123,0,0,0,2.224.919c.014,0,.028,0,.041,0s.028,0,.042,0a3.123,3.123,0,0,0,2.224-.919,3.122,3.122,0,0,0,.377-.46l8.437-8.437A3.149,3.149,0,0,0-195.9-72.054Z" transform="translate(889.976 683.973)" fill="#fff"/>
  </g>
</svg>
