<svg xmlns="http://www.w3.org/2000/svg" width="81.9" height="51.868"><path data-name="Path 195" d="M81.9 36.853a13.65 13.65 0 0 0-17.684-13.039l-1.412-3.34h4.082a1.365 1.365 0 0 0 .965-.4 5.231 5.231 0 0 0 0-7.39 1.363 1.363 0 0 0-.965-.4h-6.825a1.315 1.315 0 0 0-.646.184L54.493.831a1.364 1.364 0 0 0-1.257-.832h-9.554v2.73h8.644l2.091 4.941a8.26 8.26 0 0 0-4.051-.459 55.872 55.872 0 0 0-9.568 2.321q-1.11.344-2.337.716l-7.256 2.036H12.346a9.319 9.319 0 0 0-3.472.667L7.3 13.58a3.014 3.014 0 0 0 0 5.6l1.573.63a9.325 9.325 0 0 0 3.473.667h11.339l1.746 3.927-2.62 2.361A13.633 13.633 0 1 0 7.742 49.141H.003v2.73h81.9v-2.73h-7.739A13.649 13.649 0 0 0 81.9 36.853zm-55.3-9.828l2.754 6.2-2.457.354a13.59 13.59 0 0 0-2.252-4.788zm-7.033 22.113a13.649 13.649 0 0 0 7.739-12.285c0-.194-.02-.382-.028-.574l3.23-.464 3.74 8.418a1.366 1.366 0 0 0 1.248.81h13.65a1.366 1.366 0 0 0 1.295-.934l6.513-19.54h4.622l.137.312a13.629 13.629 0 0 0 .631 24.257z" fill="#40078e"/><path data-name="Path 196" d="M61.426 15.015h4.82a2.5 2.5 0 0 1 0 2.729h-4.6l-.223-.525z" fill="#fff"/><path data-name="Path 197" d="M58.599 17.543l.085.2h-.238l.153-.2z" fill="#40078e"/><path data-name="Path 198" d="M32.762 14.685l6.464-1.811c.852-.256 1.638-.5 2.383-.731a52.9 52.9 0 0 1 9.146-2.227 5.6 5.6 0 0 1 3.884.881 5.28 5.28 0 0 1 2.067 2.706 2.842 2.842 0 0 1-.329 2.457 3.994 3.994 0 0 1-3.329 1.784H32.762z" fill="#00ff79"/><path data-name="Path 199" d="M31.397 20.474h28.441l.1.236.476 1.129h-4.45a1.364 1.364 0 0 0-1.295.933l-6.513 19.541H36.379l-9.706-21.839z" fill="#fff"/><path data-name="Path 200" d="M12.346 17.744a6.568 6.568 0 0 1-2.458-.474l-1.572-.629a.281.281 0 0 1 0-.524l1.572-.629a6.546 6.546 0 0 1 2.457-.473h17.687v2.729z" fill="#00ff79"/><path data-name="Path 201" d="M24.167 33.965l-4.116.593a6.663 6.663 0 0 0-.546-1.147l3.1-2.79a10.853 10.853 0 0 1 1.562 3.344z" fill="#fff"/><path data-name="Path 202" d="M2.733 36.853a10.9 10.9 0 0 1 18.044-8.257l-3.09 2.783a6.755 6.755 0 0 0-4.035-1.35 6.825 6.825 0 1 0 6.785 7.233l4.126-.59c0 .063.009.122.009.185a10.92 10.92 0 1 1-21.839 0z" fill="#fff"/><path data-name="Path 203" d="M12.416 37.432a1.363 1.363 0 0 0 1.236.786 1.389 1.389 0 0 0 .194-.013l3.822-.547a4.094 4.094 0 1 1-4.016-4.9 4.034 4.034 0 0 1 1.938.51l-2.851 2.57a1.365 1.365 0 0 0-.323 1.594z" fill="#fff"/><path data-name="Path 204" d="M57.704 39.696a10.909 10.909 0 0 1 5.074-12.277l1.613 3.822a6.815 6.815 0 1 0 2.513-1.069L65.29 26.36a10.91 10.91 0 1 1-7.586 13.336z" fill="#fff"/><path data-name="Path 205" d="M68.007 32.783c.08 0 .158-.024.24-.024a4.13 4.13 0 1 1-2.755 1.091l1.5 3.536 2.513-1.065z" fill="#fff"/><path data-name="Path 206" d="M36.082 34.666l1.85 1.339a5.324 5.324 0 0 0 4.591 2.642h.107a5.308 5.308 0 0 0 4.569-7.82l2.048-2.733a2.456 2.456 0 0 0-1.965-3.929h-8.6a2.44 2.44 0 0 0-2.088 1.164 2.47 2.47 0 0 0-.109 2.39l.039.078-.443.333a4.087 4.087 0 0 0 0 6.537zm1.8-4.137l2.446-1.835-.765-1.53h6.631l-2.78 3.712.825.916a2.31 2.31 0 0 1-1.67 3.855h-.043a2.317 2.317 0 0 1-2.081-1.306L40.281 34l-2.4-1.74a1.087 1.087 0 0 1 .007-1.731z" fill="#40078e"/></svg>