<svg xmlns="http://www.w3.org/2000/svg" width="76.018" height="71.577"><path data-name="Union 2" d="M7.604 71.58a2.535 2.535 0 0 1-2.536-2.534V48.77a1.27 1.27 0 0 1-.906-.371l-3.8-3.8a13.838 13.838 0 0 0-.262-.406 1.123 1.123 0 0 1-.054-.245 1.145 1.145 0 0 1-.045-.228 1.3 1.3 0 0 1 .042-.252 1.214 1.214 0 0 1 .046-.231 1.308 1.308 0 0 1 .135-.216 1.129 1.129 0 0 1 .127-.2l24.077-25.344.013-.008a1.257 1.257 0 0 1 .907-.379h7.6v-2.536a2.534 2.534 0 0 1 2.534-2.534h4.957a3.965 3.965 0 0 0-.68-1 6.608 6.608 0 0 1-1.744-4.681 1.268 1.268 0 1 1 2.536 0 4.127 4.127 0 0 0 1.173 3.077 4.8 4.8 0 0 1 1.3 2.6h2.593a2.535 2.535 0 0 1 2.533 2.534v2.536h2.552a1.212 1.212 0 0 1 .318.073 1.3 1.3 0 0 1 .16.036 1.226 1.226 0 0 1 .128.082 1.375 1.375 0 0 1 .282.2l.013.009L75.679 42.83c.007.009.011.02.019.029a1.272 1.272 0 0 1 .234.358v.024c.01.029.013.058.021.086a1.209 1.209 0 0 1 .06.349.8.8 0 0 1 0 .128 1.249 1.249 0 0 1-.07.318 1.179 1.179 0 0 1-.039.114 1.249 1.249 0 0 1-.244.356l-3.8 3.8a1.272 1.272 0 0 1-.9.372V69.04a2.534 2.534 0 0 1-2.534 2.534zm35.48-63.975c0-.66-.242-.984-.791-1.654A6.6 6.6 0 0 1 40.55 1.27a1.267 1.267 0 1 1 2.534 0 4.13 4.13 0 0 0 1.174 3.078 4.8 4.8 0 0 1 1.362 3.257 1.268 1.268 0 1 1-2.536 0z" fill="#40078e"/><path data-name="Path 150" d="M50.145 19.622l21.669 22.81H49.965l-21.669-22.81h5.375l4.435 4.675.013.009a1.239 1.239 0 0 0 .906.38h7.862a1.267 1.267 0 0 0 1.267-1.267v-3.8z" fill="#fff"/><path data-name="Path 151" d="M48.679 46.233l1.267-1.267h21.76l-1.267 1.267z" fill="#00ff79"/><path data-name="Union 11" d="M40.551 22.156v-7.6h5.069v7.6zm-5.069-4.307v-3.3h2.535v5.963z" fill="#00ff79"/><path data-name="Path 153" d="M5.043 45.68l-2-2.005 22.3-23.481 22.3 23.481-2.006 2.005-19.373-20.592a1.308 1.308 0 0 0-1.847 0z" fill="#fff"/><path data-name="Rectangle 24" fill="#00ff79" d="M13.94 56.371h7.603v12.672H13.94z"/><path data-name="Path 154" d="M32.948 69.043h-8.871V56.371a2.533 2.533 0 0 0-2.534-2.534h-7.6a2.534 2.534 0 0 0-2.535 2.534v12.672h-3.8V46.658l17.741-18.851 17.74 18.851v22.385z" fill="#fff"/><path data-name="Rectangle 25" fill="#fff" d="M45.62 48.768h22.81v20.276H45.62z"/><path data-name="Union 3" d="M54.671 63.973a1.267 1.267 0 0 1-1.268-1.266v-7.6a1.266 1.266 0 0 1 1.268-1.266h5.069a1.266 1.266 0 0 1 1.268 1.266v7.6a1.267 1.267 0 0 1-1.268 1.266z" fill="#40078e"/><path data-name="Rectangle 26" fill="#00ff79" d="M55.938 56.371h2.534v5.069h-2.534z"/><path data-name="Path 158" d="M36.234 53.837h-5.069a1.267 1.267 0 0 0-1.267 1.267v7.6a1.267 1.267 0 0 0 1.267 1.267h5.069a1.267 1.267 0 0 0 1.267-1.267v-7.6a1.267 1.267 0 0 0-1.267-1.267z" fill="#40078e"/><path data-name="Rectangle 27" fill="#00ff79" d="M32.43 56.371h2.534v5.069H32.43z"/></svg>