<svg xmlns="http://www.w3.org/2000/svg" width="47.46" height="71.131"><path data-name="Path 268" d="M38.334 71.131h-1.636a4.213 4.213 0 0 1-4.169-3.651H15.307a4.216 4.216 0 0 1-4.173 3.651H9.498a4.216 4.216 0 0 1-4.187-3.767A6.548 6.548 0 0 1 0 60.942V6.537A6.545 6.545 0 0 1 6.538 0h34.38a6.553 6.553 0 0 1 6.542 6.536v54.406a6.525 6.525 0 0 1-4.93 6.317 4.214 4.214 0 0 1-4.196 3.872z" fill="#40078e"/><path data-name="Union 13" d="M35.432 64.98H6.539A4.043 4.043 0 0 1 2.5 60.941V29.015h35.918V64.98zM2.5 26.73V6.537A4.042 4.042 0 0 1 6.539 2.5h31.879v24.23z" fill="#fff" stroke="rgba(0,0,0,0)"/><path data-name="Union 14" d="M40.918 29.016h4.042v31.925a4.029 4.029 0 0 1-3.829 4.011l-.213.027zm0-2.286V2.5a4.048 4.048 0 0 1 4.042 4.037V26.73z" fill="#00ff79"/><path data-name="Union 15" d="M10.577 45.937v-12.5h2.5v12.5zm0-27.5v-7.5h2.5v7.5z" fill="#40078e"/></svg>