<svg xmlns="http://www.w3.org/2000/svg" width="78" height="61.1"><path data-name="Path 160" d="M78 41.6v-7.8a1.3 1.3 0 0 0-1.3-1.3h-2.6V18.2a1.3 1.3 0 0 0-1.3-1.3H55.377L46.642.683A1.3 1.3 0 0 0 45.496 0h-41.6a1.3 1.3 0 0 0-1.284 1.1L.012 18a1.205 1.205 0 0 0-.016.2v23.4a1.3 1.3 0 0 0 1.3 1.3H3.69a12.939 12.939 0 0 0 4.14 15.6H-.004v2.6h78v-2.6H66.267a12.939 12.939 0 0 0 4.14-15.6H76.7a1.3 1.3 0 0 0 1.3-1.3zM23.367 58.5a13 13 0 0 0 4.973-7.8h17.421a13.007 13.007 0 0 0 4.97 7.8z" fill="#40078e"/><path data-name="Path 161" d="M55.9 19.5h15.6v1.3h-5.2a1.3 1.3 0 0 0-1.3 1.3v5.2a1.3 1.3 0 0 0 1.3 1.3h5.2v3.9h-7.8a1.3 1.3 0 0 0-1.3 1.3v1.9a12.994 12.994 0 0 0-6.5-.336z" fill="#fff"/><path data-name="Rectangle 28" fill="#00ff79" d="M67.6 23.4h3.9V26h-3.9z"/><path data-name="Path 162" d="M28.001 44.2a12.81 12.81 0 0 0-.494-1.3h19.087a12.81 12.81 0 0 0-.494 1.3z" fill="#fff"/><path data-name="Path 163" d="M29.9 40.3V19.5h23.4v16.693a13.057 13.057 0 0 0-5.175 4.107z" fill="#fff"/><path data-name="Path 164" d="M46.824 6.5l.854 1.587 4.746 8.813H29.9V6.5z" fill="#00ff79"/><path data-name="Path 165" d="M2.6 40.3v-22L5.016 2.6h39.7l.7 1.3H28.6a1.3 1.3 0 0 0-1.3 1.3v35.1h-1.323a12.952 12.952 0 0 0-20.776.033V40.3z" fill="#fff"/><path data-name="Path 166" d="M15.6 58.5A10.4 10.4 0 1 1 26 48.1a10.413 10.413 0 0 1-10.4 10.4z" fill="#fff"/><path data-name="Path 167" d="M58.5 58.5a10.4 10.4 0 1 1 10.4-10.4 10.4 10.4 0 0 1-10.4 10.4z" fill="#fff"/><path data-name="Path 168" d="M75.4 40.3h-6.523a13.069 13.069 0 0 0-3.876-3.441V35.1h10.4z" fill="#fff"/><path data-name="Rectangle 29" fill="#40078e" d="M32.5 23.4h3.9V26h-3.9z"/><path data-name="Union 4" d="M50.7 48.1a7.8 7.8 0 1 1 7.8 7.8 7.8 7.8 0 0 1-7.8-7.8zm2.6 0a5.2 5.2 0 1 0 5.2-5.2 5.2 5.2 0 0 0-5.2 5.2zm-45.5 0a7.8 7.8 0 1 1 7.8 7.8 7.8 7.8 0 0 1-7.8-7.8zm2.6 0a5.2 5.2 0 1 0 5.2-5.2 5.2 5.2 0 0 0-5.2 5.2z" fill="#40078e"/><path data-name="Rectangle 30" fill="#fff" d="M28.6 46.8h16.9v1.3H28.6z"/><path data-name="Path 171" d="M23.4 19.5a1.3 1.3 0 0 0 1.3-1.3v-13a1.3 1.3 0 0 0-1.3-1.3H7.8A1.3 1.3 0 0 0 6.518 5L4.46 18a1.3 1.3 0 0 0 1.283 1.5z" fill="#40078e"/><path data-name="Path 172" d="M8.911 6.5h13.19v10.4H7.265z" fill="#00ff79"/></svg>