<svg xmlns="http://www.w3.org/2000/svg" width="257.462" height="45.152"><path d="M236.834 34.403a5.022 5.022 0 0 1-1.626-4.006V14.916a5.083 5.083 0 0 1 1.587-4.006 6.975 6.975 0 0 1 4.76-1.412 7.136 7.136 0 0 1 4.8 1.412 5.025 5.025 0 0 1 1.625 4.006v8.514h-10.062v6.964q0 3.1 3.677 3.1t3.677-3.1v-2.129h2.709v2.129a5.083 5.083 0 0 1-1.586 4.006 6.977 6.977 0 0 1-4.76 1.412 7.132 7.132 0 0 1-4.801-1.409zm1.083-19.487v6.193h7.354v-6.193q0-3.1-3.677-3.1t-3.677 3.1zm-80.924 19.487a5.022 5.022 0 0 1-1.625-4.006V14.916a5.083 5.083 0 0 1 1.586-4.006 6.975 6.975 0 0 1 4.76-1.412 7.134 7.134 0 0 1 4.8 1.412 5.025 5.025 0 0 1 1.626 4.006v8.514h-10.062v6.964q0 3.1 3.677 3.1t3.677-3.1v-2.129h2.709v2.129a5.084 5.084 0 0 1-1.587 4.006 6.976 6.976 0 0 1-4.76 1.412 7.134 7.134 0 0 1-4.801-1.409zm1.084-19.487v6.193h7.353v-6.193q0-3.1-3.677-3.1t-3.676 3.1zm-15.5 19.6a4.97 4.97 0 0 1-1.335-3.735V6.047h2.58v4.031h5.934v2.323h-5.805v18.538a2.9 2.9 0 0 0 .561 1.819 1.877 1.877 0 0 0 1.586.735 1.846 1.846 0 0 0 1.567-.715 2.961 2.961 0 0 0 .542-1.839v-4.605h2.709v4.45a5.056 5.056 0 0 1-1.3 3.735 4.731 4.731 0 0 1-3.5 1.3 4.869 4.869 0 0 1-3.54-1.3zm-38.953-.116a4.965 4.965 0 0 1-1.664-4.006V14.916a5 5 0 0 1 1.645-4.006 7.38 7.38 0 0 1 4.915-1.412 7.459 7.459 0 0 1 4.934 1.412 4.969 4.969 0 0 1 1.665 4.006v15.478a4.992 4.992 0 0 1-1.646 4.006 7.378 7.378 0 0 1-4.915 1.412 7.458 7.458 0 0 1-4.935-1.409zm1.045-19.487v15.481q0 3.1 3.87 3.1t3.871-3.1V14.916q0-3.1-3.871-3.1t-3.871 3.1zM85.009 34.4a5.023 5.023 0 0 1-1.625-4.006V14.916a5.083 5.083 0 0 1 1.587-4.006 6.974 6.974 0 0 1 4.76-1.412 7.131 7.131 0 0 1 4.8 1.412 5.022 5.022 0 0 1 1.626 4.006v3.678h-2.709v-3.677q0-3.1-3.677-3.1t-3.677 3.1v15.477q0 3.1 3.677 3.1t3.677-3.1v-2.129h2.709v2.129a5.083 5.083 0 0 1-1.586 4.006 6.978 6.978 0 0 1-4.76 1.412 7.133 7.133 0 0 1-4.803-1.409zm169.746.832V10.078h2.709v25.157zm-33.012 0V10.078h2.708v22.834h7.083v2.323zm-17.8 0V10.078h5.844a6.579 6.579 0 0 1 4.586 1.432 5.126 5.126 0 0 1 1.568 3.986v6.58a5.15 5.15 0 0 1-1.549 4.006 6.623 6.623 0 0 1-4.605 1.412h-3.135v7.741zm2.709-10.062h3.135q3.445 0 3.444-3.1v-6.576a2.939 2.939 0 0 0-.889-2.283 3.665 3.665 0 0 0-2.555-.812h-3.135zm-12 10.062V14.916q0-3.1-2.786-3.1a4.26 4.26 0 0 0-3 1.317 3.68 3.68 0 0 0-1.373 2.561v19.545h-2.709V14.916q0-3.1-2.787-3.1a4.361 4.361 0 0 0-3 1.258 3.5 3.5 0 0 0-1.373 2.5v19.661h-2.709V10.078h1.161l.968 2.477a6.407 6.407 0 0 1 2.127-2.225 5.258 5.258 0 0 1 2.865-.832q3.907 0 4.991 2.826a5.621 5.621 0 0 1 4.877-2.826q5.458 0 5.457 5.418v20.319zm-62.5 0V14.916a3.618 3.618 0 0 0-.639-2.283 2.838 2.838 0 0 0-2.342-.813 4.539 4.539 0 0 0-3.135 1.317 3.634 3.634 0 0 0-1.433 2.554v19.545h-2.709V10.078h1.161l.968 2.516a5.74 5.74 0 0 1 5.147-3.1q5.689 0 5.689 5.418v20.319z" fill="#40078e"/><path d="M66.488 19.032a19.018 19.018 0 0 0-19-19H33.244V0H18.997a19.027 19.027 0 0 0-19 19.014v7.124a19.009 19.009 0 0 0 19 18.979h14.247v.035h14.247a19.018 19.018 0 0 0 19-19v-1l-5.5-2.566 5.5-2.565zm-47.492 23.71a16.632 16.632 0 0 1-16.622-16.6v-7.124a16.689 16.689 0 0 1 16.622-16.64h5.061a19.032 19.032 0 0 0-9.81 16.64v7.124a18.99 18.99 0 0 0 9.8 16.6zm-2.374-16.6v-7.124a16.689 16.689 0 0 1 16.622-16.64v.035a16.641 16.641 0 0 1 16.622 16.622v1l5.5 2.565-5.5 2.566v1a16.641 16.641 0 0 1-16.622 16.622v-.035a16.632 16.632 0 0 1-16.622-16.615zm47.483.531a16.642 16.642 0 0 1-16.614 16.109h-5.057a19.017 19.017 0 0 0 9.8-16.1l5.943-2.782zm-5.929-5.385l-5.943-2.771a19.017 19.017 0 0 0-9.8-16.1h5.057a16.642 16.642 0 0 1 16.614 16.109z" fill="#31e687"/></svg>